<?xml version="1.0" encoding="utf-8"?>
<!-- Generator: Adobe Illustrator 23.0.0, SVG Export Plug-In . SVG Version: 6.00 Build 0)  -->
<svg version="1.1" id="Слой_1" xmlns="http://www.w3.org/2000/svg" xmlns:xlink="http://www.w3.org/1999/xlink" x="0px" y="0px"
	 viewBox="0 0 1005.99 412.73" style="enable-background:new 0 0 1005.99 412.73;" xml:space="preserve">
<style type="text/css">
	.st0{fill:#FFFFFF;}
</style>
<path class="st0" d="M442.35,129.33h-40.4l-18.29,55.41h-64.54l14.16,28.54h17.35c-4.82,11.37-14.77,17.05-29.84,17.05
	c-11.74,0-20.85-3.46-27.34-10.38c-6.49-6.92-9.73-15.38-9.73-25.39c0-10.38,3.27-18.9,9.82-25.58c6.55-6.67,14.95-10.01,25.2-10.01
	c6.3,0,11.95,1.24,16.96,3.71c5,2.47,8.8,5.74,11.4,9.82l28.17-16.12c-5.68-9.02-13.56-16.25-23.63-21.68
	c-10.07-5.44-21.16-8.15-33.27-8.15c-19.15,0-35.21,6.55-48.19,19.64c-6.42,6.48-11.25,13.7-14.49,21.63
	c0.02-0.53,0.04-1.07,0.04-1.62c0-11.37-3.89-20.35-11.68-26.97c-7.78-6.61-18.16-9.91-31.14-9.91h-38.8h-12.35h-24.36l14.16,31.36
	h10.2v98.37h54.67c13.22,0,23.78-3.46,31.69-10.38c6.16-5.39,9.91-12.17,11.27-20.34c2.9,5.02,6.51,9.7,10.87,14.04
	c13.03,12.97,29.68,19.46,49.95,19.46c17.11,0,31.34-4.79,42.71-14.34l-3.81,11.56h35.95l5.56-18.72h43.18l5.56,18.72h35.77
	L442.35,129.33z M194.96,158.99h17.05c3.09,0,5.62,0.93,7.6,2.78c1.97,1.85,2.96,4.33,2.96,7.41c0,3.21-1.02,5.72-3.06,7.51
	c-2.04,1.79-4.54,2.69-7.51,2.69h-17.05V158.99z M223.69,226.35c-2.1,2.04-4.82,3.06-8.15,3.06h-20.57v-21.87h20.57
	c3.34,0,6.05,0.99,8.15,2.97c2.1,1.98,3.15,4.63,3.15,7.97C226.84,221.69,225.79,224.31,223.69,226.35z M243.7,191.97
	c3.32-2.6,5.94-5.6,7.89-8.99c-0.55,3.67-0.85,7.47-0.85,11.4c0,1.01,0.03,2,0.06,3C248.77,195.38,246.41,193.57,243.7,191.97z
	 M409.18,211.8l12.97-44.11l13.16,44.11H409.18z"/>
<g>
	<polygon class="st0" points="608.49,156.82 595.86,156.82 595.86,129.2 586.48,129.2 586.48,165.89 608.49,165.89 	"/>
	<path class="st0" d="M627.89,166.68c5.38,0,9.93-1.84,13.65-5.53c3.72-3.69,5.58-8.22,5.58-13.6c0-5.38-1.86-9.91-5.58-13.6
		c-3.72-3.69-8.27-5.53-13.65-5.53c-5.38,0-9.93,1.84-13.65,5.53c-3.72,3.69-5.58,8.22-5.58,13.6c0,5.38,1.86,9.91,5.58,13.6
		C617.95,164.83,622.5,166.68,627.89,166.68z M620.81,140.39c1.89-1.87,4.25-2.8,7.08-2.8c2.83,0,5.19,0.94,7.08,2.8
		c1.89,1.87,2.83,4.25,2.83,7.15c0,2.9-0.94,5.29-2.83,7.15c-1.89,1.87-4.25,2.8-7.08,2.8c-2.83,0-5.19-0.93-7.08-2.8
		c-1.89-1.87-2.83-4.25-2.83-7.15C617.98,144.65,618.92,142.26,620.81,140.39z"/>
	<path class="st0" d="M669.19,166.68c3.35,0,6.44-0.78,9.25-2.33c2.81-1.55,5.02-3.68,6.63-6.37l-8.12-4.72
		c-0.7,1.33-1.74,2.37-3.12,3.12c-1.38,0.75-2.93,1.13-4.64,1.13c-2.94,0-5.3-0.92-7.1-2.75c-1.8-1.83-2.7-4.24-2.7-7.21
		c0-2.97,0.9-5.37,2.7-7.21c1.8-1.83,4.17-2.75,7.1-2.75c1.71,0,3.26,0.38,4.64,1.13c1.38,0.75,2.42,1.77,3.12,3.07l8.12-4.66
		c-1.61-2.65-3.83-4.77-6.66-6.34c-2.83-1.57-5.91-2.36-9.22-2.36c-5.52,0-10.09,1.83-13.71,5.48c-3.62,3.65-5.42,8.2-5.42,13.65
		c0,5.45,1.81,10,5.42,13.65C659.1,164.85,663.66,166.68,669.19,166.68z"/>
	<polygon class="st0" points="697.8,149.48 708.34,165.89 718.82,165.89 706.66,147.02 718.3,129.2 707.81,129.2 697.8,144.61 
		697.8,129.2 688.42,129.2 688.42,165.89 697.8,165.89 	"/>
	<path class="st0" d="M745.58,164.34c2.81-1.55,5.02-3.68,6.63-6.37l-8.12-4.72c-0.7,1.33-1.74,2.37-3.12,3.12
		c-1.38,0.75-2.93,1.13-4.64,1.13c-2.94,0-5.3-0.92-7.1-2.75c-1.8-1.83-2.7-4.24-2.7-7.21c0-2.97,0.9-5.37,2.7-7.21
		c1.8-1.83,4.17-2.75,7.1-2.75c1.71,0,3.26,0.38,4.64,1.13c1.38,0.75,2.42,1.77,3.12,3.07l8.12-4.66c-1.61-2.65-3.83-4.77-6.66-6.34
		c-2.83-1.57-5.91-2.36-9.22-2.36c-5.52,0-10.09,1.83-13.71,5.48c-3.62,3.65-5.42,8.2-5.42,13.65c0,5.45,1.81,10,5.42,13.65
		c3.62,3.65,8.18,5.48,13.71,5.48C739.68,166.68,742.76,165.9,745.58,164.34z"/>
	<polygon class="st0" points="764.94,151.79 775.27,151.79 775.27,165.89 784.6,165.89 784.6,129.2 775.27,129.2 775.27,142.78 
		764.94,142.78 764.94,129.2 755.56,129.2 755.56,165.89 764.94,165.89 	"/>
	<path class="st0" d="M799.38,129.2l-12.11,36.69h10.17l1.57-5.29h12.21l1.57,5.29h10.12L810.8,129.2H799.38z M801.42,152.52
		l3.67-12.47l3.72,12.47H801.42z"/>
	<rect x="825.58" y="129.2" class="st0" width="9.38" height="36.69"/>
	<polygon class="st0" points="860.96,129.2 860.96,147.65 848.01,129.2 840.73,129.2 840.73,165.89 850.11,165.89 850.11,147.44 
		863.06,165.89 870.29,165.89 870.29,129.2 	"/>
	<path class="st0" d="M572.64,175.04c-5.42,0-9.96,1.85-13.63,5.56c-3.67,3.7-5.5,8.25-5.5,13.63c0,5.38,1.84,9.91,5.53,13.57
		c3.69,3.67,8.39,5.5,14.13,5.5c5.38,0,9.76-1.67,13.13-5.01c3.37-3.34,5.06-7.7,5.06-13.08v-3.72h-18.5l4.25,8.07h4.66
		c-1.36,3.22-4.18,4.82-8.44,4.82c-3.32,0-5.9-0.98-7.73-2.93c-1.83-1.96-2.75-4.35-2.75-7.18c0-2.93,0.93-5.35,2.78-7.23
		c1.85-1.89,4.23-2.83,7.13-2.83c1.78,0,3.38,0.35,4.8,1.05c1.42,0.7,2.49,1.62,3.22,2.78l7.97-4.56c-1.61-2.55-3.83-4.59-6.68-6.13
		C579.2,175.8,576.07,175.04,572.64,175.04z"/>
	<path class="st0" d="M626.89,212.51l-12.11-36.69h-11.43l-12.11,36.69h10.17l1.57-5.29h12.21l1.57,5.29H626.89z M605.4,199.14
		l3.67-12.47l3.72,12.47H605.4z"/>
	<polygon class="st0" points="648.75,207.48 657.66,192.75 657.66,212.51 666.99,212.51 666.99,175.82 657.66,175.82 648.27,191.49 
		638.94,175.82 629.56,175.82 629.56,212.51 638.94,212.51 638.94,192.8 647.8,207.48 	"/>
	<polygon class="st0" points="696.13,184.57 696.13,175.82 672.8,175.82 672.8,212.51 696.39,212.51 696.39,203.7 682.18,203.7 
		682.18,198.31 694.82,198.31 694.82,189.66 682.18,189.66 682.18,184.57 	"/>
	<path class="st0" d="M563.89,222.44l-12.11,36.69h10.17l1.57-5.29h12.21l1.57,5.29h10.12l-12.11-36.69H563.89z M565.94,245.77
		l3.67-12.47l3.72,12.47H565.94z"/>
	<polygon class="st0" points="599.48,222.44 590.1,222.44 590.1,259.13 612.11,259.13 612.11,250.06 599.48,250.06 	"/>
	<polygon class="st0" points="624.9,222.44 615.52,222.44 615.52,259.13 637.53,259.13 637.53,250.06 624.9,250.06 	"/>
	<rect x="640.93" y="222.44" class="st0" width="9.38" height="36.69"/>
	<path class="st0" d="M665.04,222.44l-12.11,36.69h10.17l1.57-5.29h12.21l1.57,5.29h10.12l-12.11-36.69H665.04z M667.09,245.77
		l3.67-12.47l3.72,12.47H667.09z"/>
	<polygon class="st0" points="711.48,240.89 698.53,222.44 691.25,222.44 691.25,259.13 700.63,259.13 700.63,240.68 713.58,259.13 
		720.81,259.13 720.81,222.44 711.48,222.44 	"/>
	<path class="st0" d="M744.34,230.83c1.71,0,3.26,0.38,4.64,1.13c1.38,0.75,2.42,1.77,3.12,3.07l8.12-4.66
		c-1.61-2.66-3.83-4.77-6.66-6.34c-2.83-1.57-5.91-2.36-9.22-2.36c-5.52,0-10.09,1.83-13.71,5.48c-3.62,3.65-5.42,8.2-5.42,13.65
		c0,5.45,1.81,10,5.42,13.65c3.62,3.65,8.18,5.48,13.71,5.48c3.35,0,6.44-0.78,9.25-2.33c2.81-1.55,5.02-3.68,6.63-6.37l-8.12-4.72
		c-0.7,1.33-1.74,2.37-3.12,3.12c-1.38,0.75-2.93,1.13-4.64,1.13c-2.94,0-5.3-0.92-7.1-2.75c-1.8-1.83-2.7-4.24-2.7-7.21
		c0-2.97,0.9-5.37,2.7-7.21C739.04,231.75,741.41,230.83,744.34,230.83z"/>
	<polygon class="st0" points="772.96,244.93 785.59,244.93 785.59,236.28 772.96,236.28 772.96,231.19 786.9,231.19 786.9,222.44 
		763.58,222.44 763.58,259.13 787.16,259.13 787.16,250.33 772.96,250.33 	"/>
	<path class="st0" d="M554.93,138.14v27.75h15.46c3.74,0,6.73-0.98,8.96-2.94c2.24-1.96,3.35-4.56,3.35-7.81
		c0-3.67-1.54-6.41-4.61-8.23c2.27-1.78,3.41-4.21,3.41-7.29c0-3.21-1.1-5.76-3.3-7.63c-2.2-1.87-5.14-2.8-8.81-2.8h-10.77h-3.69
		h-6.77l4.03,8.94H554.93z M564.31,137.59h4.82c0.87,0,1.59,0.26,2.15,0.79c0.56,0.52,0.84,1.22,0.84,2.1
		c0,0.91-0.29,1.62-0.86,2.12c-0.58,0.51-1.28,0.76-2.12,0.76h-4.82V137.59z M564.31,151.32h5.82c0.94,0,1.71,0.28,2.31,0.84
		c0.59,0.56,0.89,1.31,0.89,2.25c0,0.91-0.3,1.65-0.89,2.23c-0.59,0.58-1.36,0.86-2.31,0.86h-5.82V151.32z"/>
</g>
<g>
</g>
<g>
</g>
<g>
</g>
<g>
</g>
<g>
</g>
<g>
</g>
</svg>
