<svg xmlns="http://www.w3.org/2000/svg" viewBox="0 0 1738.91 309.22"><defs><style>.cls-1{fill:#f6f6f4;}</style></defs><g id="Layer_2" data-name="Layer 2"><g id="Layer_2-2" data-name="Layer 2"><path class="cls-1" d="M323.84,138.16a55.17,55.17,0,0,1,28.16-7.3,53.59,53.59,0,0,1,30.72,8.68,42.58,42.58,0,0,1,17.07,25,7.06,7.06,0,0,0,6.76,5.12H427.8a6.9,6.9,0,0,0,5.42-2.56,6.89,6.89,0,0,0,1.37-2.76,6.82,6.82,0,0,0,0-3.08A76.76,76.76,0,0,0,418,126.43a78.71,78.71,0,0,0-29.51-21.61,91.48,91.48,0,0,0-35.84-7.16,90.63,90.63,0,1,0,0,181.25,93,93,0,0,0,35.84-7.09,76.41,76.41,0,0,0,46-56.56,6.92,6.92,0,0,0,0-3.07,7,7,0,0,0-6.79-5.32H406.32a7,7,0,0,0-6.73,5.12,42.66,42.66,0,0,1-17.1,24.91,53.1,53.1,0,0,1-30.56,8.7,55.12,55.12,0,0,1-28.16-7.27A52.24,52.24,0,0,1,304,218.13a59.75,59.75,0,0,1-7.33-29.75A60.3,60.3,0,0,1,304,158.64,52.8,52.8,0,0,1,323.84,138.16Z"/><path class="cls-1" d="M560,105.41a7,7,0,0,0-6.45-4.27H533.49a6.91,6.91,0,0,0-3.87,1.17,7,7,0,0,0-2.59,3.1l-68,160.47a7,7,0,0,0-.53,3.36,7,7,0,0,0,7,6.37h22.17a7,7,0,0,0,6.48-4.31l13.41-32.05h71.67l13.42,32.05a6.89,6.89,0,0,0,2.59,3.13,7,7,0,0,0,3.88,1.18h22.17a7,7,0,0,0,7-6.37,6.92,6.92,0,0,0-.53-3.36Zm6,102.2H520.89l22.58-53.76Z"/><path class="cls-1" d="M777.92,112a101.83,101.83,0,0,0-47.57-10.83H671.81a7,7,0,0,0-7,7V268.67a7,7,0,0,0,7,7h58.88a101,101,0,0,0,47.38-10.83,79.56,79.56,0,0,0,32.46-31,90.32,90.32,0,0,0,11.41-45.6,89.3,89.3,0,0,0-11.49-45.41A79.81,79.81,0,0,0,777.92,112Zm8.93,76.8A58.24,58.24,0,0,1,780,217.62a46.08,46.08,0,0,1-19.19,18.46,65.51,65.51,0,0,1-30.72,6.71h-31v-109h30.54a65.37,65.37,0,0,1,30.89,6.86,46.46,46.46,0,0,1,19.33,18.9A59.91,59.91,0,0,1,786.85,188.77Z"/><path class="cls-1" d="M996.85,101H976a7,7,0,0,0-7,7v97.29a45.52,45.52,0,0,1-4.73,20.84A35.18,35.18,0,0,1,951,240.46a42,42,0,0,1-41.19-.18,35.06,35.06,0,0,1-13.18-14.42A46.57,46.57,0,0,1,892,204.92V108a7,7,0,0,0-7-7H864.18a7,7,0,0,0-7,7v98.43a73.75,73.75,0,0,0,9.7,37.92A67.49,67.49,0,0,0,893.51,270a81.63,81.63,0,0,0,74.85-.21,67.08,67.08,0,0,0,26.29-25.85,74.35,74.35,0,0,0,9.42-37.48V108a7,7,0,0,0-2.15-5,6.84,6.84,0,0,0-2.34-1.48A6.71,6.71,0,0,0,996.85,101Z"/><path class="cls-1" d="M1106,138.16a55.15,55.15,0,0,1,28.16-7.3,53.58,53.58,0,0,1,30.71,8.68,42.47,42.47,0,0,1,17.08,25,7,7,0,0,0,6.76,5.12h21.24a6.9,6.9,0,0,0,5.43-2.56,7,7,0,0,0,1.37-2.76,7.11,7.11,0,0,0,0-3.08,76.86,76.86,0,0,0-16.64-34.87,78.74,78.74,0,0,0-29.52-21.61,91.47,91.47,0,0,0-35.83-7.16,90.6,90.6,0,1,0-.08,181.2,93,93,0,0,0,35.84-7.09,76.48,76.48,0,0,0,46.07-56.56,7,7,0,0,0-1.43-5.83,7.1,7.1,0,0,0-2.42-1.9,7,7,0,0,0-3-.66h-21.37a7,7,0,0,0-6.73,5.12,42.66,42.66,0,0,1-17.1,24.91,53.19,53.19,0,0,1-30.57,8.7,55.11,55.11,0,0,1-28.15-7.27,52.54,52.54,0,0,1-19.82-20.2,59.85,59.85,0,0,1-7.32-29.75,60.4,60.4,0,0,1,7.32-29.74A52.9,52.9,0,0,1,1106,138.16Z"/><path class="cls-1" d="M1374.72,242.84h-79.87V203h67.58a7,7,0,0,0,7-7V178.09a7,7,0,0,0-7-7h-67.58V134.24h78.8a7,7,0,0,0,7-7v-19a7,7,0,0,0-7-7H1267a7,7,0,0,0-7,7V268.74a7,7,0,0,0,7,7h107.77a7,7,0,0,0,7-7V249.88a7.09,7.09,0,0,0-.53-2.69,6.83,6.83,0,0,0-1.51-2.28,7.16,7.16,0,0,0-2.27-1.53A6.86,6.86,0,0,0,1374.72,242.84Z"/><path class="cls-1" d="M1556.74,101h-20.88a7,7,0,0,0-7,7v97.29a45.4,45.4,0,0,1-4.74,20.84,35.44,35.44,0,0,1-13.21,14.31,42.73,42.73,0,0,1-41.28,0A34.93,34.93,0,0,1,1456.45,226a46,46,0,0,1-4.68-20.94V108.15a7,7,0,0,0-7-7H1424a7,7,0,0,0-7,7v98.44a73.91,73.91,0,0,0,9.7,37.91,67.43,67.43,0,0,0,26.62,25.6,81.59,81.59,0,0,0,74.85-.2A67.12,67.12,0,0,0,1554.47,244a74.55,74.55,0,0,0,9.42-37.48V108.13a7.1,7.1,0,0,0-2.07-5.06,7.09,7.09,0,0,0-2.33-1.53A7,7,0,0,0,1556.74,101Z"/><path class="cls-1" d="M1719.55,185.88c-11.34-7.45-26-12.65-43.52-15.36-14.21-1.92-24.75-4.82-31.31-8.58a13.3,13.3,0,0,1-7.68-12.47,17,17,0,0,1,6.1-13.62c4.27-3.74,12.54-5.71,24-5.71a46.37,46.37,0,0,1,17.45,2.9,21,21,0,0,1,9.55,7.14,17.46,17.46,0,0,1,3.05,10.24,7,7,0,0,0,7,7h21a7,7,0,0,0,7-7,50,50,0,0,0-7.68-27.68,51.21,51.21,0,0,0-22.73-18.63,84.91,84.91,0,0,0-34.31-6.38,86.65,86.65,0,0,0-35.83,6.61,48.61,48.61,0,0,0-22.12,18.71,50.07,50.07,0,0,0-7.12,26.29A41.35,41.35,0,0,0,1613,178.55a60.91,60.91,0,0,0,24.14,15.8,170,170,0,0,0,30.71,7.68c12.49,1.89,22.07,4.81,28.47,8.68a14.52,14.52,0,0,1,7.5,13.67c0,7.68-2.56,12.8-7.91,16.54-6,4.2-15.36,6.32-27.6,6.32a46.51,46.51,0,0,1-19.4-3.74,28.28,28.28,0,0,1-11.77-9.32,20.18,20.18,0,0,1-3.84-11.93,7,7,0,0,0-7-7h-20.89a7,7,0,0,0-7,7,52.85,52.85,0,0,0,8,27.83,57.52,57.52,0,0,0,24,21.22,84.37,84.37,0,0,0,38,7.89,99.19,99.19,0,0,0,36.5-6.17A54.34,54.34,0,0,0,1730,254.08a50.58,50.58,0,0,0,8.88-29.7C1738.54,207,1732.14,194.2,1719.55,185.88Z"/><path class="cls-1" d="M113.72,23.62a2.1,2.1,0,0,1-.13.26v0C113.64,23.78,113.68,23.7,113.72,23.62Z"/><path class="cls-1" d="M113.59,23.86v0a2.1,2.1,0,0,0,.13-.26C113.68,23.7,113.64,23.78,113.59,23.86Z"/><path class="cls-1" d="M232.59,49.25,211.47,25.39a7.8,7.8,0,0,0-4.38-2.53l-.37-.07-36.35-6.93a11.17,11.17,0,0,0-3.32-5A8.3,8.3,0,0,0,163.3,9l-.23,0L117,.17h0a8.46,8.46,0,0,0-3.25,0l-39.87,7c-7.2,1.32-10.73,8.45-10.48,14.82l.77,20.74-31.62-6h0a8.88,8.88,0,0,0-9,4.17l-21,32C-.46,77.28-1.39,84,3.1,89.09L68.52,162.9l4.72,126.2c.2,5.94,3.29,10.3,7.9,11.13h0l46.26,8.81.08,0a9.26,9.26,0,0,0,1.72.15,11.45,11.45,0,0,0,2.18-.21l26.3-4.65c6.33-1.08,10.18-7.77,10.25-13.61l1.49-127.93,63.75-97.21C236.7,60.3,236.45,53.56,232.59,49.25ZM68.75,17.87l41.51,7.9a17.27,17.27,0,0,0-.56,5L111.51,80,83.22,48a7.8,7.8,0,0,0-4.39-2.54l-.39-.08-9.37-1.78-.81-21.88A11.74,11.74,0,0,1,68.75,17.87ZM6.6,75.54l21-32a4,4,0,0,1,3.92-2L70.38,48.9c-.19.24-.37.48-.54.74l-21,32a15.27,15.27,0,0,0-2,4.66L5.3,78.41A10.26,10.26,0,0,1,6.6,75.54Zm65.65,84.1L6.81,85.8a6.9,6.9,0,0,1-1.4-2.33L46.48,91.3a11.91,11.91,0,0,0,3,6.62L110.69,167Zm9.81,135.73c-3.46-.6-3.84-5.47-3.87-6.45l-4.64-124,41.4,7.89,4.68,125.11a15.61,15.61,0,0,0,.88,4.77ZM120.18,15.94a11.93,11.93,0,0,0-7.82,5.19L71.63,13.37a6.8,6.8,0,0,1,3-1.39l39.87-7A3.93,3.93,0,0,1,116,5l31.9,6.08Zm77.91,11.11L170.55,69,171,21l27.61,5.26C198.45,26.53,198.26,26.79,198.09,27.05Z"/><path class="cls-1" d="M163.3,9h0l-.23,0Z"/></g></g></svg>