<svg width="427" height="97" viewBox="0 0 427 97" fill="none" xmlns="http://www.w3.org/2000/svg">
<path d="M10.1784 94.6843H0.918457V23.3628H10.1784V94.6843Z" fill="white"/>
<path d="M31.94 66.1163H57.8482C57.7168 62.5699 56.5347 59.6803 54.3018 57.4474C52.0689 55.1488 48.9166 53.9995 44.8448 53.9995C41.1671 53.9995 38.1461 55.2145 35.7819 57.6444C33.4176 60.0086 32.137 62.8326 31.94 66.1163ZM59.2273 78.4301L67.2067 81.1883C65.8275 85.5885 63.2663 89.2005 59.5229 92.0245C55.7795 94.7828 51.248 96.1619 45.9284 96.1619C39.2954 96.1619 33.6475 93.8962 28.9847 89.3647C24.3875 84.7675 22.0889 78.5942 22.0889 70.8448C22.0889 63.6207 24.3218 57.6444 28.7876 52.9159C33.2534 48.1874 38.573 45.8231 44.7463 45.8231C51.9047 45.8231 57.487 48.0889 61.4931 52.6204C65.4992 57.0862 67.5022 63.0953 67.5022 70.6477C67.5022 71.8299 67.4365 72.815 67.3052 73.6031H31.6444C31.7101 77.8062 33.0893 81.254 35.7819 83.9466C38.5402 86.6392 41.9224 87.9856 45.9284 87.9856C52.6928 87.9856 57.1258 84.8004 59.2273 78.4301Z" fill="white"/>
<path d="M88.4841 94.6843H79.3227V47.3008H88.1886V53.6055C89.6334 51.1099 91.6693 49.2053 94.2962 47.8919C96.9232 46.5784 99.6815 45.9217 102.571 45.9217C105.658 45.9217 108.482 46.6769 111.043 48.1874C113.604 49.6979 115.509 51.9308 116.757 54.8861C120.04 48.9098 125.327 45.9217 132.617 45.9217C137.148 45.9217 140.99 47.465 144.142 50.5516C147.36 53.6383 148.969 58.1041 148.969 63.949V94.6843H139.808V64.9341C139.808 61.6505 138.954 59.0235 137.247 57.0533C135.605 55.0831 133.109 54.098 129.76 54.098C126.542 54.098 123.915 55.2473 121.879 57.5459C119.843 59.7788 118.825 62.6027 118.825 66.0178V94.6843H109.565V64.9341C109.565 61.6505 108.712 59.0235 107.004 57.0533C105.362 55.0831 102.867 54.098 99.5173 54.098C96.2336 54.098 93.5738 55.2145 91.5379 57.4474C89.5021 59.6803 88.4841 62.5699 88.4841 66.1163V94.6843Z" fill="white"/>
<path d="M173.54 83.4541C176.43 86.4094 179.943 87.887 184.081 87.887C188.218 87.887 191.699 86.4094 194.523 83.4541C197.412 80.4331 198.857 76.2628 198.857 70.9433C198.857 65.6894 197.412 61.5848 194.523 58.6295C191.699 55.6085 188.218 54.098 184.081 54.098C179.943 54.098 176.43 55.6085 173.54 58.6295C170.716 61.5848 169.304 65.6894 169.304 70.9433C169.304 76.2628 170.716 80.4331 173.54 83.4541ZM166.644 53.0144C171.242 48.2202 177.054 45.8231 184.081 45.8231C191.108 45.8231 196.887 48.2202 201.419 53.0144C206.016 57.7429 208.314 63.7192 208.314 70.9433C208.314 78.233 206.048 84.275 201.517 89.0692C196.986 93.7977 191.173 96.1619 184.081 96.1619C176.988 96.1619 171.176 93.7977 166.644 89.0692C162.113 84.275 159.847 78.233 159.847 70.9433C159.847 63.7192 162.113 57.7429 166.644 53.0144Z" fill="white"/>
<path d="M229.422 67.2984V94.6843H220.162V47.3008H229.225V54.098C232.377 48.6471 237.237 45.9217 243.804 45.9217C249.255 45.9217 253.425 47.662 256.315 51.1427C259.27 54.6234 260.748 59.122 260.748 64.6386V94.6843H251.488V66.2148C251.488 58.2683 247.81 54.295 240.455 54.295C236.974 54.295 234.249 55.5428 232.278 58.0384C230.374 60.4683 229.422 63.555 229.422 67.2984Z" fill="white"/>
<path d="M272.522 81.9764C272.522 77.9047 273.836 74.6538 276.463 72.2239C279.09 69.7283 282.57 68.185 286.905 67.5939L299.711 65.7222C302.141 65.3939 303.356 64.2117 303.356 62.1759C303.356 59.6803 302.502 57.6444 300.795 56.0682C299.087 54.4921 296.526 53.704 293.111 53.704C289.959 53.704 287.463 54.5906 285.624 56.3637C283.785 58.0713 282.702 60.3698 282.373 63.2595L273.507 61.1908C273.967 56.6593 276.036 52.9816 279.713 50.1576C283.391 47.268 287.791 45.8231 292.914 45.8231C299.613 45.8231 304.571 47.465 307.789 50.7487C311.007 53.9667 312.616 58.1041 312.616 63.161V86.9019C312.616 89.7259 312.813 92.32 313.207 94.6843H304.144C303.816 92.7141 303.651 90.5797 303.651 88.2811C302.338 90.3826 300.401 92.2215 297.839 93.7977C295.344 95.3738 292.191 96.1619 288.382 96.1619C283.72 96.1619 279.91 94.7828 276.955 92.0245C274 89.2005 272.522 85.8512 272.522 81.9764ZM289.663 88.3796C293.8 88.3796 297.117 87.2631 299.613 85.0302C302.108 82.7973 303.356 79.251 303.356 74.3911V72.2239L288.875 74.3911C286.773 74.7195 285.099 75.4747 283.851 76.6569C282.603 77.839 281.979 79.448 281.979 81.4839C281.979 83.3227 282.669 84.9317 284.048 86.3109C285.493 87.69 287.364 88.3796 289.663 88.3796Z" fill="white"/>
<path d="M332.558 70.8448C332.558 75.8359 333.773 79.9077 336.203 83.06C338.699 86.2124 342.114 87.7885 346.448 87.7885C350.585 87.7885 353.902 86.1795 356.398 82.9615C358.893 79.7435 360.141 75.6389 360.141 70.6477C360.141 65.7222 358.926 61.749 356.496 58.728C354.066 55.707 350.75 54.1965 346.547 54.1965C342.343 54.1965 338.961 55.7398 336.4 58.8265C333.839 61.9132 332.558 65.9192 332.558 70.8448ZM360.239 88.2811V87.493C358.992 89.9229 357.087 91.9588 354.526 93.6006C352.03 95.1768 349.042 95.9649 345.561 95.9649C338.797 95.9649 333.346 93.6006 329.209 88.8721C325.137 84.078 323.101 78.0688 323.101 70.8448C323.101 63.949 325.203 58.1041 329.406 53.3099C333.609 48.4501 338.994 46.0202 345.561 46.0202C349.436 46.0202 352.589 46.8082 355.018 48.3844C357.448 49.8949 359.123 51.7666 360.042 53.9995V23.3628H369.204V85.9168C369.204 89.1348 369.368 92.0573 369.696 94.6843H360.732C360.404 92.8454 360.239 90.711 360.239 88.2811Z" fill="white"/>
<path d="M390.964 66.1163H416.872C416.741 62.5699 415.559 59.6803 413.326 57.4474C411.093 55.1488 407.941 53.9995 403.869 53.9995C400.191 53.9995 397.17 55.2145 394.806 57.6444C392.442 60.0086 391.161 62.8326 390.964 66.1163ZM418.251 78.4301L426.231 81.1883C424.851 85.5885 422.29 89.2005 418.547 92.0245C414.803 94.7828 410.272 96.1619 404.952 96.1619C398.319 96.1619 392.671 93.8962 388.009 89.3647C383.411 84.7675 381.113 78.5942 381.113 70.8448C381.113 63.6207 383.346 57.6444 387.812 52.9159C392.277 48.1874 397.597 45.8231 403.77 45.8231C410.929 45.8231 416.511 48.0889 420.517 52.6204C424.523 57.0862 426.526 63.0953 426.526 70.6477C426.526 71.8299 426.46 72.815 426.329 73.6031H390.668C390.734 77.8062 392.113 81.254 394.806 83.9466C397.564 86.6392 400.946 87.9856 404.952 87.9856C411.717 87.9856 416.15 84.8004 418.251 78.4301Z" fill="white"/>
<path fill-rule="evenodd" clip-rule="evenodd" d="M186.996 26.428C189.315 26.428 191.196 28.3085 191.196 30.6282C191.196 32.9479 189.315 34.8284 186.996 34.8284C184.676 34.8284 182.795 32.9479 182.795 30.6282C182.795 28.3085 184.676 26.428 186.996 26.428ZM172.995 15.9276C176.475 15.9276 179.295 18.7483 179.295 22.2279C179.295 25.7074 176.475 28.5281 172.995 28.5281C169.516 28.5281 166.695 25.7074 166.695 22.2279C166.695 18.7483 169.516 15.9276 172.995 15.9276ZM190.846 1.22705C196.065 1.22705 200.296 5.45812 200.296 10.6774C200.296 15.8967 196.065 20.1278 190.846 20.1278C185.626 20.1278 181.395 15.8967 181.395 10.6774C181.395 5.45812 185.626 1.22705 190.846 1.22705Z" fill="url(#paint0_radial_2262_211403)"/>
<defs>
<radialGradient id="paint0_radial_2262_211403" cx="0" cy="0" r="1" gradientUnits="userSpaceOnUse" gradientTransform="translate(183.495 18.0277) scale(34.3326 34.3326)">
<stop stop-color="#FFDB00"/>
<stop offset="1" stop-color="#F5B42E"/>
</radialGradient>
</defs>
</svg>
