<svg width="158" height="42" viewBox="0 0 158 42" fill="none" xmlns="http://www.w3.org/2000/svg">
<path d="M68.8691 29C76.4528 29 79.7382 26.05 79.7382 19.975C79.7382 13.925 76.4528 11 68.8691 11C61.2607 11 58 13.9 58 19.975C58 26.075 61.2607 29 68.8691 29ZM68.8691 23.5C65.0896 23.5 64.4227 21.85 64.4227 19.975C64.4227 18.125 65.0649 16.5 68.8691 16.5C72.6733 16.5 73.3156 18.15 73.3156 19.975C73.3156 21.825 72.6486 23.5 68.8691 23.5Z" fill="url(#paint0_linear_110_280)"/>
<path d="M109.485 11.25H101.58L96.2442 21.25L90.9084 11.25H83.0036V28.75H89.4263V20.425L94.1444 28.75H98.3439L103.062 20.425V28.75H109.485V11.25Z" fill="url(#paint1_linear_110_280)"/>
<path d="M129.304 28.75H136.369L129.206 11.25H119.67L112.507 28.75H119.572L120.757 25.6H128.119L129.304 28.75ZM122.437 21.1L124.438 15.75L126.439 21.1H122.437Z" fill="url(#paint2_linear_110_280)"/>
<path d="M155.168 20C156.725 19.175 157.614 17.975 157.614 16.25C157.614 12.15 154.131 11 148.054 11C142.051 11 138 12.15 138 17.875H144.423C144.423 16.5 145.905 16.5 148.301 16.5C150.574 16.5 151.191 16.5 151.191 17.4C151.191 18.5 150.574 18.5 145.831 18.5V21.5C150.574 21.5 151.191 21.5 151.191 22.6C151.191 23.5 150.574 23.5 148.301 23.5C145.905 23.5 144.423 23.5 144.423 22.125H138C138 27.85 142.051 29 148.054 29C154.131 29 157.614 27.85 157.614 23.75C157.614 22.025 156.725 20.825 155.168 20Z" fill="#04EBDA"/>
<circle cx="21.1595" cy="21.3495" r="15.3495" fill="#D9D9D9"/>
<path d="M21.1595 14.3724L27.2017 24.838H15.1172L21.1595 14.3724Z" fill="#4F00B0"/>
<path d="M36.1631 24.6054C34.6699 31.5187 28.5197 36.6989 21.1597 36.6989C13.7996 36.6989 7.64947 31.5187 6.15625 24.6054L36.1631 24.6054Z" fill="#3B6DFF"/>
<path d="M25.8138 6.71831C24.3458 6.25175 22.782 6 21.1595 6C12.6822 6 5.81006 12.8722 5.81006 21.3495C5.81006 25.8427 7.74073 29.8851 10.8178 32.6922L25.8138 6.71831Z" fill="#21A7F2"/>
<path d="M31.5014 32.6922C34.5784 29.8851 36.5091 25.8427 36.5091 21.3495C36.5091 12.8722 29.6369 6 21.1596 6C19.5371 6 17.9734 6.25175 16.5054 6.71832L31.5014 32.6922Z" fill="#04EBDA"/>
<defs>
<linearGradient id="paint0_linear_110_280" x1="136.369" y1="11" x2="59.499" y2="34.0082" gradientUnits="userSpaceOnUse">
<stop stop-color="#00F4D7"/>
<stop offset="0.494792" stop-color="#327CFF"/>
<stop offset="1" stop-color="#7900FF"/>
</linearGradient>
<linearGradient id="paint1_linear_110_280" x1="136.369" y1="11" x2="59.499" y2="34.0082" gradientUnits="userSpaceOnUse">
<stop stop-color="#00F4D7"/>
<stop offset="0.494792" stop-color="#327CFF"/>
<stop offset="1" stop-color="#7900FF"/>
</linearGradient>
<linearGradient id="paint2_linear_110_280" x1="136.369" y1="11" x2="59.499" y2="34.0082" gradientUnits="userSpaceOnUse">
<stop stop-color="#00F4D7"/>
<stop offset="0.494792" stop-color="#327CFF"/>
<stop offset="1" stop-color="#7900FF"/>
</linearGradient>
</defs>
</svg>
