<svg width="103" height="26" viewBox="0 0 103 26" fill="none" xmlns="http://www.w3.org/2000/svg">
<path d="M15.9651 -0.00012207V2.8592H20.0278L6.10352e-05 22.1406V24.9999H23.0988C23.6046 24.9999 24.0898 24.799 24.4475 24.4416C24.8052 24.0841 25.0062 23.5992 25.0062 23.0937V12.476H22.1451V22.1406H4.13914L22.1546 4.78447V9.0544H25.0157V1.99988C25.0157 0.89531 24.1203 -0.00012207 23.0157 -0.00012207H15.9651Z" fill="#DBFA7D"/>
<path d="M2.87063 2.85896H12.5412V-0.000366211H1.91693C1.41105 -0.000366211 0.925895 0.200465 0.568187 0.55795C0.210478 0.915434 0.00952148 1.40029 0.00952148 1.90585V13.3431H2.87063V2.85896Z" fill="#DBFA7D"/>
<g clip-path="url(#clip0_737_1292)">
<path d="M37.609 6.68885V5.55298H48.8365V8.51476L41.5489 16.375H49.0452V19.3765H37.2001V16.6362L44.5328 8.46364H39.3717C39.1385 8.4699 38.9065 8.42826 38.6899 8.34129C38.4732 8.25431 38.2764 8.12381 38.1115 7.95774C37.9465 7.79167 37.8169 7.59352 37.7305 7.37536C37.6442 7.15721 37.6028 6.92362 37.609 6.68885Z" fill="white"/>
<path d="M62.5177 12.5127C62.5177 17.2805 60.4109 19.6914 56.2482 19.6914C52.0855 19.6914 50.0041 17.2805 50.0041 12.5127C50.0041 7.68528 52.0855 5.30847 56.2482 5.30847C60.4109 5.30847 62.5177 7.69379 62.5177 12.5127ZM53.5153 12.5127C53.5435 15.2104 54.4517 16.5734 56.2228 16.5734C57.9939 16.5734 58.8767 15.1536 58.9021 12.4076C58.9021 9.70996 58.0165 8.37532 56.2482 8.37532C54.4263 8.37532 53.5153 9.76107 53.5153 12.5127Z" fill="white"/>
<path d="M67.2557 2.71323V10.6643L71.6666 5.56994H75.9986L71.0744 10.8801L76.0521 19.3991H71.7315L69.1932 14.6853C68.7335 13.8731 68.4825 13.4671 67.8987 13.4671C67.7264 13.4737 67.5632 13.5471 67.4434 13.672C67.3236 13.7969 67.2563 13.9636 67.2557 14.1372V19.3651H63.688V0.952637H65.5438C66.0002 0.965153 66.434 1.1558 66.7534 1.48432C67.0728 1.81283 67.2529 2.25349 67.2557 2.71323Z" fill="white"/>
<path d="M79.1772 21.8329C81.0696 21.8329 81.7436 20.893 81.1993 19.0643L76.5317 5.56445H80.4463L83.1679 15.1483L85.5538 6.79403C85.7625 5.98473 86.3068 5.56445 87.1896 5.56445H89.6009L84.1775 21.7279C83.3483 23.9996 82.5192 24.7805 79.6651 24.7805C78.7851 24.7805 78.317 24.755 78.2126 24.6783V21.8386L79.1772 21.8329Z" fill="white"/>
<path d="M103 12.5127C103 17.2805 100.89 19.6914 96.7277 19.6914C92.565 19.6914 90.4865 17.2805 90.4865 12.5127C90.4865 7.68528 92.5678 5.30847 96.7277 5.30847C100.888 5.30847 103 7.69379 103 12.5127ZM93.9977 12.5127C94.0231 15.2104 94.934 16.5734 96.7023 16.5734C98.4707 16.5734 99.3562 15.1536 99.3816 12.4076C99.3816 9.70996 98.4989 8.37532 96.7277 8.37532C94.9086 8.37532 93.9977 9.76107 93.9977 12.5127Z" fill="white"/>
<path d="M38.4711 22.5093C38.3455 22.424 38.1957 22.3813 38.044 22.3877C37.9743 22.3874 37.9048 22.3944 37.8366 22.4086C37.7723 22.4215 37.7108 22.4454 37.6547 22.4793C37.6024 22.5117 37.559 22.5567 37.5285 22.6101C37.4946 22.6731 37.4781 22.744 37.4807 22.8155C37.4792 22.8499 37.4845 22.8842 37.4963 22.9165C37.5081 22.9489 37.5261 22.9786 37.5494 23.0039C37.601 23.0562 37.6636 23.0964 37.7326 23.1217C37.8173 23.155 37.9049 23.1804 37.9942 23.1975C38.0904 23.2172 38.1905 23.2388 38.288 23.263C38.3854 23.2872 38.4842 23.314 38.5823 23.3454C38.6757 23.3756 38.7639 23.4197 38.844 23.4762C38.9195 23.5298 38.9821 23.5995 39.0272 23.6803C39.076 23.7832 39.0996 23.8962 39.0958 24.01C39.0921 24.1238 39.0611 24.2351 39.0056 24.3345C38.9472 24.4282 38.8685 24.5076 38.7753 24.5667C38.6788 24.6282 38.5723 24.6725 38.4607 24.6976C38.2147 24.7554 37.9583 24.7514 37.7142 24.6858C37.5948 24.6534 37.4825 24.5988 37.3832 24.5249C37.2874 24.4528 37.2103 24.3588 37.1582 24.2508C37.101 24.128 37.0728 23.9937 37.0758 23.8583H37.3924C37.3896 23.947 37.4085 24.0352 37.4475 24.115C37.4865 24.1948 37.5444 24.2638 37.6161 24.3162C37.6864 24.3668 37.7657 24.4037 37.8497 24.4248C37.9393 24.4484 38.0317 24.4603 38.1244 24.4601C38.2006 24.4602 38.2766 24.4532 38.3514 24.4392C38.4234 24.426 38.4929 24.4018 38.5575 24.3672C38.6174 24.3338 38.668 24.2859 38.7047 24.2279C38.7451 24.16 38.7648 24.0818 38.7616 24.0028C38.7661 23.9268 38.7428 23.8517 38.6962 23.7915C38.6459 23.7346 38.5832 23.6898 38.513 23.6607C38.4299 23.6245 38.3433 23.5969 38.2546 23.5783L37.9602 23.5129C37.8608 23.4906 37.764 23.4651 37.6665 23.4357C37.5745 23.4089 37.4865 23.37 37.4048 23.3199C37.3299 23.273 37.2672 23.2091 37.2217 23.1334C37.173 23.0457 37.1493 22.9464 37.153 22.8463C37.1506 22.7324 37.1771 22.6199 37.2302 22.5192C37.2804 22.4281 37.3509 22.3497 37.4362 22.2902C37.5254 22.2301 37.6244 22.1858 37.7286 22.1594C37.8381 22.13 37.9509 22.1152 38.0642 22.1155C38.1854 22.1145 38.3062 22.1296 38.4234 22.1607C38.529 22.1887 38.6278 22.2379 38.7138 22.3052C38.7973 22.3718 38.8645 22.4566 38.9101 22.5532C38.9612 22.6654 38.9881 22.7871 38.9892 22.9104H38.6674C38.6497 22.7206 38.585 22.5898 38.4711 22.5093Z" fill="white"/>
<path d="M41.2306 22.1652V22.4471H39.83V23.2459H41.1384V23.5272H39.83V24.3959H41.2411V24.6779H39.4957V22.1652H41.2306Z" fill="white"/>
<path d="M43.165 22.5207C43.0297 22.4304 42.8696 22.3847 42.707 22.3899C42.5736 22.3861 42.4413 22.4151 42.3217 22.4743C42.2183 22.529 42.1288 22.6066 42.06 22.7013C41.9892 22.7999 41.9373 22.9108 41.907 23.0284C41.874 23.1522 41.8575 23.2797 41.8579 23.4078C41.8571 23.545 41.8736 23.6817 41.907 23.8147C41.9365 23.9348 41.9884 24.0482 42.06 24.149C42.1298 24.2442 42.2208 24.3219 42.3256 24.376C42.446 24.435 42.5789 24.464 42.7129 24.4604C42.8135 24.4622 42.9134 24.4437 43.0066 24.4061C43.0901 24.3711 43.1656 24.3195 43.2284 24.2543C43.2921 24.1881 43.3419 24.1098 43.3749 24.024C43.4116 23.9319 43.4336 23.8345 43.4404 23.7356H43.7701C43.7367 24.0522 43.6281 24.2988 43.443 24.4748C43.2578 24.6508 43.004 24.7364 42.6828 24.7364C42.5075 24.7403 42.3334 24.7061 42.1726 24.6364C42.032 24.5733 41.908 24.4786 41.8101 24.3596C41.7112 24.2371 41.6376 24.0961 41.5936 23.9449C41.5447 23.7779 41.5205 23.6047 41.5217 23.4307C41.5204 23.2559 41.5464 23.082 41.5988 22.9152C41.6468 22.7617 41.7239 22.6189 41.8258 22.4946C41.9279 22.3733 42.0558 22.2763 42.2 22.2107C42.3611 22.1391 42.536 22.1038 42.7123 22.1073C42.8387 22.1064 42.9645 22.124 43.0858 22.1596C43.1983 22.1927 43.3041 22.2452 43.3985 22.3147C43.491 22.3836 43.5689 22.4704 43.6275 22.5698C43.6906 22.6786 43.7314 22.7989 43.7472 22.9237H43.4129C43.3861 22.7621 43.2971 22.6175 43.165 22.5207Z" fill="white"/>
<path d="M45.936 24.4927C45.7646 24.6543 45.5206 24.7341 45.204 24.7341C44.8873 24.7341 44.627 24.6576 44.4451 24.5039C44.2632 24.3501 44.173 24.1055 44.173 23.7699V22.1652H44.5073V23.7699C44.5073 23.9949 44.567 24.1656 44.6865 24.2821C44.806 24.3985 44.9785 24.4565 45.204 24.4561C45.4172 24.4561 45.5801 24.3979 45.6913 24.2821C45.8025 24.1663 45.8581 23.9949 45.8581 23.7699V22.1652H46.1905V23.7699C46.1905 24.0917 46.1067 24.3325 45.936 24.4927Z" fill="white"/>
<path d="M47.9105 22.1652C48.1495 22.1652 48.3366 22.2238 48.4718 22.3411C48.5393 22.4013 48.5925 22.4759 48.6275 22.5593C48.6624 22.6427 48.6783 22.7329 48.6739 22.8233C48.677 22.964 48.641 23.1028 48.5699 23.2243C48.4946 23.3438 48.3752 23.4287 48.2376 23.4604V23.4676C48.3011 23.4777 48.3616 23.5016 48.4149 23.5376C48.4594 23.5685 48.4967 23.6087 48.5241 23.6554C48.5518 23.7031 48.5721 23.7547 48.5843 23.8085C48.5977 23.8665 48.6075 23.9252 48.6137 23.9844C48.619 24.0453 48.6222 24.1081 48.6249 24.1709C48.6267 24.2333 48.6326 24.2956 48.6425 24.3573C48.6514 24.4165 48.6647 24.4749 48.6824 24.532C48.6992 24.5854 48.7263 24.6349 48.7622 24.6779H48.3887C48.3632 24.648 48.3468 24.6115 48.3416 24.5725C48.3326 24.5231 48.3273 24.473 48.3259 24.4227C48.3259 24.3678 48.3207 24.3083 48.3187 24.2455C48.3162 24.1826 48.309 24.1201 48.2971 24.0584C48.2879 23.9975 48.2762 23.9393 48.2624 23.8843C48.2503 23.8326 48.228 23.7837 48.197 23.7404C48.1659 23.6981 48.1248 23.6642 48.0773 23.6416C48.0156 23.6143 47.9485 23.6015 47.881 23.6044H47.0646V24.6779H46.7303V22.1652H47.9105ZM47.9805 23.3054C48.046 23.2964 48.109 23.2742 48.1656 23.24C48.2186 23.2055 48.262 23.1583 48.2919 23.1026C48.3313 23.0168 48.3467 22.922 48.3366 22.8281C48.3264 22.7342 48.2911 22.6449 48.2343 22.5694C48.1637 22.4901 48.0498 22.4504 47.8928 22.4504H47.062V23.3224H47.7607C47.8343 23.3228 47.9078 23.3171 47.9805 23.3054Z" fill="white"/>
<path d="M50.8732 22.1652V22.4471H49.4726V23.2459H50.781V23.5272H49.4726V24.3959H50.8837V24.6779H49.1383V22.1652H50.8732Z" fill="white"/>
<path d="M51.6968 24.2875V24.6427C51.7001 24.764 51.6683 24.8838 51.6053 24.9875C51.5355 25.0899 51.4301 25.1627 51.3096 25.1916V25.0156C51.3473 25.0031 51.3817 24.9823 51.4103 24.9548C51.4364 24.9287 51.4584 24.8989 51.4757 24.8664C51.4916 24.836 51.5028 24.8034 51.5091 24.7696C51.5149 24.7395 51.5167 24.7087 51.5143 24.678H51.3069V24.2855L51.6968 24.2875Z" fill="white"/>
<path d="M54.1565 22.1652H54.3305C54.3959 22.1652 54.4548 22.1697 54.5156 22.1756C54.573 22.1809 54.63 22.1896 54.6864 22.2018C54.7342 22.2115 54.78 22.2295 54.8218 22.2548C54.9061 22.3062 54.9776 22.3759 55.0311 22.4589C55.0911 22.5545 55.1212 22.6659 55.1175 22.7788C55.1211 22.9015 55.0879 23.0225 55.022 23.1262C54.9547 23.2251 54.8582 23.3006 54.7459 23.342V23.3492C54.8863 23.3734 55.0128 23.4487 55.1011 23.5605C55.1847 23.674 55.228 23.8122 55.2241 23.953C55.2241 24.0445 55.2075 24.1351 55.175 24.2206C55.1427 24.3065 55.093 24.3849 55.0292 24.4509C54.9608 24.5202 54.8794 24.5753 54.7897 24.6131C54.686 24.6557 54.5747 24.6767 54.4626 24.6746H53.2485V22.1652H54.1565ZM54.2481 23.2459C54.4384 23.2459 54.5751 23.2118 54.6582 23.1451C54.7011 23.1082 54.7347 23.0617 54.7564 23.0095C54.778 22.9572 54.7872 22.9006 54.7832 22.8442C54.7866 22.7716 54.772 22.6992 54.7407 22.6336C54.7141 22.5835 54.674 22.542 54.6249 22.5138C54.5721 22.4846 54.5141 22.4659 54.4541 22.4589C54.3857 22.4508 54.3169 22.4469 54.2481 22.4471H53.5828V23.2459H54.2481ZM54.4168 24.3959C54.5436 24.4036 54.6683 24.3608 54.7636 24.2769C54.8064 24.2335 54.8396 24.1816 54.8611 24.1246C54.8827 24.0676 54.892 24.0067 54.8885 23.9458C54.8912 23.875 54.8754 23.8047 54.8427 23.7417C54.8145 23.6883 54.7728 23.6432 54.7217 23.6109C54.6683 23.5783 54.6093 23.5562 54.5477 23.5455C54.4802 23.5323 54.4116 23.5257 54.3429 23.5259H53.5828V24.3946L54.4168 24.3959Z" fill="white"/>
<path d="M57.4044 24.4927C57.2337 24.6543 56.9896 24.7341 56.6724 24.7341C56.3551 24.7341 56.096 24.6576 55.9142 24.5039C55.7323 24.3501 55.642 24.1055 55.642 23.7699V22.1652H55.9757V23.7699C55.9757 23.9949 56.0356 24.1656 56.1556 24.2821C56.2746 24.3979 56.4473 24.4561 56.6724 24.4561C56.8861 24.4561 57.0485 24.3981 57.1597 24.2821C57.2709 24.1661 57.3268 23.9953 57.3272 23.7699V22.1652H57.6615V23.7699C57.6615 24.0917 57.5758 24.3327 57.4044 24.4927Z" fill="white"/>
<path d="M58.5455 22.1652V24.6779H58.2105V22.1652H58.5455Z" fill="white"/>
<path d="M59.4423 22.1652V24.3959H60.7729V24.6779H59.108V22.1652H59.4423Z" fill="white"/>
<path d="M61.9275 22.1652C62.3143 22.1652 62.6122 22.2637 62.8211 22.4609C63.03 22.658 63.1342 22.9582 63.1338 23.3617C63.1366 23.5511 63.1128 23.7401 63.0631 23.9229C63.022 24.0749 62.9473 24.2157 62.8446 24.3351C62.742 24.4494 62.6128 24.5368 62.4685 24.5896C62.2949 24.652 62.1113 24.6819 61.9268 24.6779H61.064V22.1652H61.9275ZM61.955 24.3959C62.002 24.3955 62.0489 24.3927 62.0956 24.3874C62.1571 24.3809 62.2175 24.3668 62.2755 24.3455C62.3422 24.3214 62.4055 24.2889 62.4639 24.2487C62.5301 24.2024 62.5867 24.1438 62.6307 24.076C62.685 23.9918 62.726 23.8998 62.7524 23.8032C62.7866 23.6741 62.8026 23.5409 62.8002 23.4074C62.8017 23.2718 62.7867 23.1365 62.7557 23.0045C62.7302 22.8943 62.6811 22.7909 62.6118 22.7016C62.5422 22.617 62.4521 22.5517 62.3501 22.5119C62.2247 22.4648 62.0914 22.4426 61.9576 22.4465H61.3943V24.3953L61.955 24.3959Z" fill="white"/>
<path d="M63.9503 24.2875V24.6427C63.9538 24.764 63.9223 24.8837 63.8594 24.9875C63.7894 25.0899 63.6837 25.1627 63.563 25.1916V25.0156C63.6009 25.0034 63.6354 24.9826 63.6638 24.9548C63.69 24.9289 63.7121 24.8991 63.7292 24.8664C63.7456 24.8362 63.757 24.8035 63.7632 24.7696C63.7684 24.7394 63.7702 24.7087 63.7684 24.678H63.5604V24.2855L63.9503 24.2875Z" fill="white"/>
<path d="M65.8475 22.1652V24.6779H65.5125V22.1652H65.8475Z" fill="white"/>
<path d="M66.7626 22.1652L68.086 24.2029H68.0925V22.1652H68.4091V24.6779H68.0434L66.7318 22.6617H66.7253V24.6779H66.4047V22.1652H66.7626Z" fill="white"/>
<path d="M69.5598 24.6779L68.6767 22.1652H69.0358L69.7554 24.3436H69.7626L70.4875 22.1652H70.8361L69.9373 24.6779H69.5598Z" fill="white"/>
<path d="M72.8366 22.1652V22.4471H71.436V23.2459H72.7411V23.5272H71.436V24.3959H72.8471V24.6779H71.1011V22.1652H72.8366Z" fill="white"/>
<path d="M74.5094 22.5089C74.3838 22.4235 74.234 22.3808 74.0823 22.3872C74.0124 22.3869 73.9427 22.3939 73.8742 22.4081C73.8102 22.421 73.7489 22.4449 73.693 22.4788C73.6407 22.5112 73.5973 22.5562 73.5668 22.6096C73.5329 22.6726 73.5164 22.7435 73.519 22.815C73.5151 22.884 73.5386 22.9517 73.5844 23.0034C73.6361 23.0557 73.6986 23.0959 73.7676 23.1212C73.8523 23.1545 73.9399 23.1799 74.0293 23.1971C74.1254 23.2167 74.2255 23.2383 74.323 23.2625C74.4205 23.2867 74.5193 23.3135 74.6167 23.3449C74.71 23.3751 74.7982 23.4193 74.8784 23.4757C74.9539 23.5293 75.0164 23.5991 75.0616 23.6799C75.1104 23.7827 75.1339 23.8957 75.1303 24.0095C75.1266 24.1232 75.0959 24.2345 75.0406 24.334C74.982 24.4278 74.9031 24.5071 74.8097 24.5663C74.7131 24.6276 74.6067 24.6719 74.4951 24.6971C74.2491 24.7549 73.9926 24.7509 73.7486 24.6853C73.6305 24.6526 73.5196 24.598 73.4215 24.5244C73.3254 24.4525 73.2479 24.3585 73.1959 24.2503C73.1387 24.1275 73.1105 23.9932 73.1134 23.8578H73.43C73.4275 23.9524 73.4486 24.0462 73.4915 24.1306C73.5308 24.2048 73.5862 24.2692 73.6538 24.319C73.7241 24.3696 73.8033 24.4065 73.8873 24.4276C73.977 24.4512 74.0693 24.4631 74.1621 24.4629C74.2374 24.4604 74.3123 24.451 74.3858 24.4348C74.4576 24.4217 74.527 24.3975 74.5912 24.3628C74.6567 24.3282 74.7109 24.2754 74.7472 24.2107C74.7835 24.1461 74.8004 24.0724 74.796 23.9984C74.8002 23.9224 74.777 23.8475 74.7306 23.7871C74.6801 23.7303 74.6175 23.6856 74.5474 23.6563C74.4632 23.6198 74.3756 23.5922 74.2857 23.5739L73.9926 23.5085C73.8926 23.4862 73.7964 23.4607 73.6983 23.4313C73.6063 23.4045 73.5182 23.3656 73.4366 23.3155C73.3617 23.2686 73.2989 23.2047 73.2534 23.129C73.2059 23.041 73.1833 22.9417 73.188 22.8418C73.1856 22.728 73.2122 22.6155 73.2652 22.5148C73.3155 22.4237 73.386 22.3453 73.4713 22.2858C73.5603 22.2258 73.659 22.1815 73.763 22.155C73.8729 22.1256 73.9862 22.1108 74.0999 22.1111C74.2209 22.1102 74.3415 22.1254 74.4584 22.1563C74.5639 22.1846 74.6627 22.2337 74.7489 22.3008C74.8324 22.3674 74.8995 22.4522 74.9451 22.5488C74.9962 22.661 75.0232 22.7827 75.0243 22.906H74.7077C74.6861 22.7202 74.6213 22.5893 74.5094 22.5089Z" fill="white"/>
<path d="M75.2649 22.4471V22.1652H77.2739V22.4471H76.4365V24.6779H76.1022V22.4471H75.2649Z" fill="white"/>
<path d="M77.5696 24.2877V24.6802H77.1771V24.2877H77.5696Z" fill="white"/>
</g>
<defs>
<clipPath id="clip0_737_1292">
<rect width="68.3256" height="24.3081" fill="white" transform="translate(34.4478 0.883667)"/>
</clipPath>
</defs>
</svg>
